<svg id="Layer_1" data-name="Layer 1" xmlns="http://www.w3.org/2000/svg" xmlns:xlink="http://www.w3.org/1999/xlink" viewBox="0 0 512 512"><defs><style>.cls-1{fill:url(#linear-gradient);}.cls-2{fill:url(#linear-gradient-2);}.cls-3{fill:url(#linear-gradient-3);}.cls-4{fill:url(#linear-gradient-4);}.cls-5{fill:url(#linear-gradient-5);}</style><linearGradient id="linear-gradient" y1="241" x2="90" y2="241" gradientUnits="userSpaceOnUse"><stop offset="0" stop-color="#00a1e4"/><stop offset="1" stop-color="#007ac2"/></linearGradient><linearGradient id="linear-gradient-2" x1="60" y1="241" x2="362" y2="241" gradientUnits="userSpaceOnUse"><stop offset="0" stop-color="#76bfea"/><stop offset="1" stop-color="#2aade3"/></linearGradient><linearGradient id="linear-gradient-3" x1="121" y1="135" x2="302" y2="135" gradientUnits="userSpaceOnUse"><stop offset="0" stop-color="#bcbec0"/><stop offset="1" stop-color="#e6e7e8"/></linearGradient><linearGradient id="linear-gradient-4" x1="0" y1="30" x2="332" y2="30" xlink:href="#linear-gradient-3"/><linearGradient id="linear-gradient-5" x1="212" y1="377" x2="512" y2="377" gradientUnits="userSpaceOnUse"><stop offset="0" stop-color="#fff200"/><stop offset="1" stop-color="#faa829"/></linearGradient></defs><title>icon sistesi mobile</title><path class="cls-1" d="M0,30H60L90,278.56,60,452A60,60,0,0,1,0,392Z"/><path class="cls-2" d="M362,60V452H60V60L90,30H302l30,30Z"/><path class="cls-3" d="M136,120H287a15,15,0,0,1,15,15h0a15,15,0,0,1-15,15H136a15,15,0,0,1-15-15h0A15,15,0,0,1,136,120Z"/><path class="cls-4" d="M332,0V60H30A30,30,0,0,1,30,0Z"/><path class="cls-5" d="M512,347.3,410.3,332.6,362,242l-42.3,90.6L212,347.3l79.8,71.4L274.4,512,362,472.1,455.6,512l-17.4-93.3Z"/></svg>