<svg id="Layer_1" data-name="Layer 1" xmlns="http://www.w3.org/2000/svg" xmlns:xlink="http://www.w3.org/1999/xlink" viewBox="0 0 512 512"><defs><style>.cls-1{fill:url(#linear-gradient);}.cls-2{fill:url(#linear-gradient-2);}.cls-3{fill:url(#linear-gradient-3);}.cls-4{fill:url(#linear-gradient-4);}.cls-5{fill:url(#linear-gradient-5);}.cls-6{fill:url(#linear-gradient-6);}.cls-7{fill:url(#linear-gradient-7);}.cls-8{fill:url(#linear-gradient-8);}</style><linearGradient id="linear-gradient" x1="0.41" y1="119.14" x2="238.68" y2="119.14" gradientUnits="userSpaceOnUse"><stop offset="0" stop-color="#76bfea"/><stop offset="1" stop-color="#2aade3"/></linearGradient><linearGradient id="linear-gradient-2" x1="273.22" y1="119.14" x2="511.5" y2="119.14" xlink:href="#linear-gradient"/><linearGradient id="linear-gradient-3" x1="0.41" y1="392.86" x2="238.68" y2="392.86" xlink:href="#linear-gradient"/><linearGradient id="linear-gradient-4" x1="273.22" y1="392.86" x2="511.5" y2="392.86" xlink:href="#linear-gradient"/><linearGradient id="linear-gradient-5" x1="118.25" y1="179.66" x2="238.68" y2="179.66" gradientUnits="userSpaceOnUse"><stop offset="0" stop-color="#00a1e4"/><stop offset="1" stop-color="#007ac2"/></linearGradient><linearGradient id="linear-gradient-6" x1="58.53" y1="392.86" x2="238.68" y2="392.86" xlink:href="#linear-gradient-5"/><linearGradient id="linear-gradient-7" x1="273.22" y1="152.49" x2="511.5" y2="152.49" xlink:href="#linear-gradient-5"/><linearGradient id="linear-gradient-8" x1="273.22" y1="392.86" x2="511.5" y2="392.86" xlink:href="#linear-gradient-5"/></defs><title>icon sistesi mobile</title><path class="cls-1" d="M238.68,26.67V211.61A26.67,26.67,0,0,1,212,238.28H27.08A26.67,26.67,0,0,1,.41,211.61V26.67A26.67,26.67,0,0,1,27.08,0H212A26.67,26.67,0,0,1,238.68,26.67Z"/><rect class="cls-2" x="273.22" width="238.28" height="238.28" rx="26.67"/><path class="cls-3" d="M238.68,300.4V485.34A26.67,26.67,0,0,1,212,512H27.08A26.67,26.67,0,0,1,.41,485.34V300.4a26.67,26.67,0,0,1,26.67-26.67H212A26.67,26.67,0,0,1,238.68,300.4Z"/><path class="cls-4" d="M511.5,300.4V485.34A26.67,26.67,0,0,1,484.83,512H299.89a26.67,26.67,0,0,1-26.67-26.66V300.4a26.67,26.67,0,0,1,26.67-26.67H484.83A26.67,26.67,0,0,1,511.5,300.4Z"/><path class="cls-5" d="M238.68,121.05v90.56A26.67,26.67,0,0,1,212,238.28H118.25A376.46,376.46,0,0,1,238.68,121.05Z"/><path class="cls-6" d="M238.68,300.4V485.34A26.67,26.67,0,0,1,212,512H65.2A376.12,376.12,0,0,1,98,273.73H212A26.67,26.67,0,0,1,238.68,300.4Z"/><path class="cls-7" d="M511.5,74.93V211.61a26.67,26.67,0,0,1-26.67,26.67H299.89a26.67,26.67,0,0,1-26.67-26.67V102.44A376.34,376.34,0,0,1,511.5,74.93Z"/><path class="cls-8" d="M511.5,300.4V485.34A26.67,26.67,0,0,1,484.83,512H299.89a26.67,26.67,0,0,1-26.67-26.66V300.4a26.67,26.67,0,0,1,26.67-26.67H484.83A26.67,26.67,0,0,1,511.5,300.4Z"/></svg>