<svg id="Layer_1" data-name="Layer 1" xmlns="http://www.w3.org/2000/svg" xmlns:xlink="http://www.w3.org/1999/xlink" viewBox="0 0 512 512"><defs><style>.cls-1{fill:url(#linear-gradient);}.cls-2{fill:url(#linear-gradient-2);}.cls-3{fill:url(#linear-gradient-3);}</style><linearGradient id="linear-gradient" x1="0.41" y1="219.77" x2="511.59" y2="219.77" gradientUnits="userSpaceOnUse"><stop offset="0" stop-color="#76bfea"/><stop offset="1" stop-color="#2aade3"/></linearGradient><linearGradient id="linear-gradient-2" x1="232.47" y1="330.45" x2="397.37" y2="330.45" gradientTransform="translate(-141.42 319.47) rotate(-45)" gradientUnits="userSpaceOnUse"><stop offset="0" stop-color="#c7d7ee"/><stop offset="1" stop-color="#e3d9ec"/></linearGradient><linearGradient id="linear-gradient-3" x1="183.54" y1="392.95" x2="328.46" y2="392.95" gradientUnits="userSpaceOnUse"><stop offset="0" stop-color="#00a1e4"/><stop offset="1" stop-color="#007ac2"/></linearGradient></defs><title>icon sistesi mobile</title><path class="cls-1" d="M509.25,234C492.41,128.14,385.39,46.6,256,46.6S19.59,128.14,2.75,234H1.62v8.33a183.64,183.64,0,0,0-.2,40.28,32.13,32.13,0,0,1,.2,3.53V351c0,23.18,22.16,42,49.49,42h411c27.34,0,49.49-18.79,49.49-42V234Z"/><rect class="cls-2" x="295.81" y="221.76" width="38.22" height="217.37" rx="19.11" transform="translate(325.9 -125.9) rotate(45)"/><circle class="cls-3" cx="256" cy="392.95" r="72.46"/></svg>