<svg viewBox="-51 0 512 512" xmlns="http://www.w3.org/2000/svg"><path d="m347.074219 512h-283.589844v-143.902344c0-13 10.542969-23.539062 23.542969-23.539062h236.503906c13 0 23.542969 10.539062 23.542969 23.539062zm0 0" fill="#46926f"/><path d="m410.558594 203.71875c0 19.523438-15.828125 35.351562-35.351563 35.351562-19.523437 0-35.351562-15.828124-35.351562-35.351562s15.828125-35.351562 35.351562-35.351562c19.523438 0 35.351563 15.828124 35.351563 35.351562zm0 0" fill="#cc9883"/><path d="m70.703125 203.71875c0 19.523438-15.828125 35.351562-35.351563 35.351562-19.523437 0-35.351562-15.828124-35.351562-35.351562s15.828125-35.351562 35.351562-35.351562c19.523438 0 35.351563 15.828124 35.351563 35.351562zm0 0" fill="#cc9883"/><path d="m42.332031 512c0-89.992188 72.953125-162.949219 162.949219-162.949219 89.992188 0 162.945312 72.957031 162.945312 162.949219zm0 0" fill="#efedee"/><path d="m234.007812 512-20.601562-92.699219h-17.460938l-20.605468 92.699219zm0 0" fill="#e36465"/><path d="m205.28125 357.820312h-60.035156v36.144532s22.898437 14.109375 60.035156 14.109375c37.132812 0 60.03125-14.109375 60.03125-14.109375v-36.144532zm0 0" fill="#d9d7d8"/><path d="m220.734375 349.785156c-5.089844-.476562-10.242187-.734375-15.453125-.734375-89.996094 0-162.949219 72.957031-162.949219 162.949219h30.90625c0-84.78125 64.75-154.429688 147.496094-162.214844zm0 0" fill="#d9d7d8"/><path d="m263 359.582031v152.417969h45.328125v-126.222656c-13.480469-11.019532-28.761719-19.917969-45.328125-26.195313zm0 0" fill="#58b78c"/><path d="m102.234375 385.777344v126.222656h45.328125v-152.417969c-16.570312 6.277344-31.847656 15.175781-45.328125 26.195313zm0 0" fill="#58b78c"/><path d="m383.621094 193.792969c0 98.496093-79.847656 178.34375-178.339844 178.34375-98.496094 0-178.34375-79.847657-178.34375-178.34375 0-98.492188 79.847656-178.339844 178.34375-178.339844 98.492188 0 178.339844 79.847656 178.339844 178.339844zm0 0" fill="#fbc4ac"/><path d="m205.28125 15.453125c-98.496094 0-178.34375 79.847656-178.34375 178.339844 0 98.496093 79.847656 178.34375 178.34375 178.34375 5.207031 0 10.359375-.238281 15.457031-.675781-91.257812-7.835938-162.886719-84.382813-162.886719-177.667969 0-.414063.011719-.824219.015626-1.238281 19.34375-1.382813 42.492187-4.777344 65.875-12.257813 33.984374-10.867187 61.320312-27.976563 81.539062-50.980469 20.214844 23 47.554688 40.109375 81.535156 50.980469 33.84375 10.824219 67.199219 13.097656 89.222656 13.097656h.003907c2.71875 0 5.25-.035156 7.574219-.09375-.269532-98.269531-80.007813-177.847656-178.335938-177.847656zm0 0" fill="#e3b098"/><path d="m205.28125 0c-101.203125 0-184.539062 77.976562-193.074219 177.003906 0 0 135.355469 14.777344 193.074219-73.132812 57.71875 87.910156 193.070312 73.132812 193.070312 73.132812-8.535156-99.027344-91.867187-177.003906-193.070312-177.003906zm0 0" fill="#fadc60"/><path d="m43.113281 177.003906c8.097657-93.9375 83.503907-168.921875 177.621094-176.382812-5.101563-.402344-10.253906-.621094-15.453125-.621094-101.203125 0-184.539062 77.976562-193.074219 177.003906 0 0 15.410157 1.675782 38.03125.53125-4.558593-.253906-7.125-.53125-7.125-.53125zm0 0" fill="#e6cb59"/><path d="m196.132812 424.074219-11.335937-11.335938c-5.050781-5.050781-5.050781-13.242187 0-18.292969l11.335937-11.335937c5.050782-5.050781 13.242188-5.050781 18.296876 0l11.332031 11.335937c5.054687 5.050782 5.054687 13.242188 0 18.292969l-11.332031 11.335938c-5.054688 5.054687-13.246094 5.054687-18.296876 0zm0 0" fill="#fd6f71"/><g fill="#464c51"><path d="m205.28125 253.914062c-9.84375 0-19.003906-5.304687-23.914062-13.84375-2.0625-3.589843-.828126-8.175781 2.765624-10.242187 3.589844-2.0625 8.171876-.824219 10.238282 2.765625 2.242187 3.898438 6.421875 6.320312 10.910156 6.320312s8.667969-2.421874 10.910156-6.320312c2.0625-3.589844 6.648438-4.828125 10.238282-2.761719 3.589843 2.0625 4.828124 6.648438 2.761718 10.238281-4.910156 8.539063-14.070312 13.84375-23.910156 13.84375zm0 0"/><path d="m271.449219 223.496094c-4.144531 0-7.5-3.355469-7.5-7.5v-11.796875c0-4.144531 3.355469-7.5 7.5-7.5 4.140625 0 7.5 3.355469 7.5 7.5v11.796875c0 4.144531-3.359375 7.5-7.5 7.5zm0 0"/><path d="m139.113281 223.496094c-4.144531 0-7.5-3.355469-7.5-7.5v-11.796875c0-4.144531 3.355469-7.5 7.5-7.5 4.140625 0 7.5 3.355469 7.5 7.5v11.796875c0 4.144531-3.359375 7.5-7.5 7.5zm0 0"/></g><path d="m277.347656 245.796875h-11.796875c-4.144531 0-7.5-3.355469-7.5-7.5 0-4.140625 3.355469-7.5 7.5-7.5h11.796875c4.140625 0 7.5 3.359375 7.5 7.5 0 4.144531-3.359375 7.5-7.5 7.5zm0 0" fill="#fd6f71"/><path d="m145.011719 245.796875h-11.796875c-4.144532 0-7.5-3.355469-7.5-7.5 0-4.140625 3.355468-7.5 7.5-7.5h11.796875c4.140625 0 7.5 3.359375 7.5 7.5 0 4.144531-3.359375 7.5-7.5 7.5zm0 0" fill="#fd6f71"/></svg>