<svg xmlns="http://www.w3.org/2000/svg" xmlns:xlink="http://www.w3.org/1999/xlink" width="142.462" height="167.291" viewBox="0 0 142.462 167.291">
  <defs>
    <linearGradient id="linear-gradient" x1="0.5" x2="0.5" y2="1" gradientUnits="objectBoundingBox">
      <stop offset="0" stop-color="#ff0d64"/>
      <stop offset="1" stop-color="#ffadca"/>
    </linearGradient>
  </defs>
  <g id="surface1" transform="translate(-0.5 0)">
    <path id="Path_44" data-name="Path 44" d="M135.437,111.716a84.4,84.4,0,0,1-20.215,31.491C105.071,153.119,91.78,161,75.716,166.614a12.087,12.087,0,0,1-3.839.678h-.144a12.258,12.258,0,0,1-2.356-.232,12.764,12.764,0,0,1-1.62-.441c-16.083-5.609-29.391-13.482-39.552-23.394A84.241,84.241,0,0,1,7.993,111.739C-.171,89.582.293,65.174.667,45.559l.006-.3c.075-1.62.124-3.321.151-5.2a17.73,17.73,0,0,1,16.7-17.37C36.754,21.615,51.634,15.342,64.347,2.95l.111-.1a10.716,10.716,0,0,1,14.549,0l.108.1c12.716,12.392,27.6,18.665,46.83,19.738a17.73,17.73,0,0,1,16.7,17.37c.027,1.892.075,3.59.151,5.2l0,.127C143.169,65.037,143.631,89.494,135.437,111.716Zm0,0" transform="translate(0)" fill="url(#linear-gradient)"/>
    <path id="Path_46" data-name="Path 46" d="M174.281,170.091a41.745,41.745,0,0,1-41.546,41.694h-.147a41.693,41.693,0,1,1,0-83.387h.147A41.745,41.745,0,0,1,174.281,170.091Zm0,0" transform="translate(-60.859 -86.445)" fill="#fff"/>
    <path id="Path_48" data-name="Path 48" d="M194.119,220.359l-18.777,18.78-4.058,4.057a4.914,4.914,0,0,1-6.945,0l-8.724-8.728a4.908,4.908,0,0,1,6.941-6.941l5.256,5.256,19.366-19.366a4.908,4.908,0,0,1,6.941,6.941Zm0,0" transform="translate(-103.465 -142.717)" fill="url(#linear-gradient)"/>
  </g>
</svg>
