<svg xmlns="http://www.w3.org/2000/svg" xmlns:xlink="http://www.w3.org/1999/xlink" viewBox="0 0 876.32 665.05"><defs><style>.cls-1{isolation:isolate;}.cls-2{opacity:0.42;fill:url(#linear-gradient);}.cls-3{fill:url(#linear-gradient-2);}.cls-4{mix-blend-mode:hard-light;}.cls-5{fill:#f4f4f4;}.cls-6{fill:url(#linear-gradient-3);}.cls-7{fill:#fff;}.cls-8{fill:url(#linear-gradient-4);}.cls-9{fill:url(#linear-gradient-5);}.cls-10{fill:url(#linear-gradient-6);}.cls-11{fill:url(#linear-gradient-7);}.cls-12{fill:url(#linear-gradient-8);}.cls-13{opacity:0.5;}.cls-14{fill:url(#linear-gradient-9);}.cls-15{opacity:0.3;}.cls-16{fill:url(#linear-gradient-10);}.cls-17{fill:url(#linear-gradient-11);}.cls-18{fill:url(#linear-gradient-12);}.cls-19{fill:url(#linear-gradient-13);}.cls-20{fill:#4e85de;}.cls-21{fill:#72acfb;}.cls-22{fill:url(#linear-gradient-14);}.cls-23{fill:url(#linear-gradient-15);}.cls-24{fill:url(#linear-gradient-16);}.cls-25{fill:url(#linear-gradient-17);}.cls-26{fill:url(#linear-gradient-18);}.cls-27{fill:#dcd0c8;}.cls-28{fill:url(#linear-gradient-19);}.cls-29{fill:#c6bbb5;}.cls-30{fill:url(#linear-gradient-20);}.cls-31{fill:url(#linear-gradient-21);}.cls-32{fill:url(#linear-gradient-22);}.cls-33{fill:#454971;}.cls-34{fill:#2e3048;}.cls-35{fill:#dba585;}.cls-36{fill:#363957;}.cls-37{fill:url(#linear-gradient-23);}.cls-38{fill:url(#linear-gradient-24);}.cls-39{fill:url(#linear-gradient-25);}.cls-40{fill:#5d5955;}.cls-41{fill:url(#linear-gradient-26);}.cls-42{fill:url(#linear-gradient-27);}.cls-43{fill:url(#linear-gradient-28);}.cls-44{fill:url(#linear-gradient-29);}.cls-45{fill:url(#linear-gradient-30);}.cls-46{fill:url(#linear-gradient-31);}.cls-47{fill:url(#linear-gradient-32);}.cls-48{fill:url(#linear-gradient-33);}.cls-49{fill:#f4f6ff;}.cls-50{fill:url(#linear-gradient-34);}.cls-51{fill:url(#linear-gradient-35);}.cls-52{fill:url(#linear-gradient-36);}.cls-53{fill:url(#linear-gradient-37);}.cls-54{fill:url(#linear-gradient-38);}.cls-55{fill:url(#linear-gradient-39);}.cls-56{fill:url(#linear-gradient-40);}.cls-57{fill:url(#linear-gradient-41);}.cls-58{fill:url(#linear-gradient-42);}.cls-59{fill:url(#linear-gradient-43);}.cls-60{fill:url(#linear-gradient-44);}.cls-61{fill:url(#linear-gradient-45);}.cls-62{fill:url(#linear-gradient-46);}.cls-63{fill:#dedede;}.cls-64{fill:url(#linear-gradient-47);}.cls-65{fill:url(#linear-gradient-48);}.cls-66{fill:url(#linear-gradient-49);}.cls-67{fill:url(#linear-gradient-50);}.cls-68{fill:url(#linear-gradient-51);}.cls-69{fill:url(#linear-gradient-52);}.cls-70{fill:url(#linear-gradient-53);}.cls-71{fill:url(#linear-gradient-54);}.cls-72{fill:url(#linear-gradient-55);}.cls-73{fill:url(#linear-gradient-56);}.cls-74{fill:url(#linear-gradient-57);}.cls-75{fill:url(#linear-gradient-58);}.cls-76{fill:url(#linear-gradient-59);}.cls-77{fill:url(#linear-gradient-60);}.cls-78{fill:url(#linear-gradient-61);}.cls-79{fill:url(#linear-gradient-62);}.cls-80{fill:url(#linear-gradient-63);}.cls-81{fill:url(#linear-gradient-64);}.cls-82{fill:url(#linear-gradient-65);}.cls-83{fill:url(#linear-gradient-66);}.cls-84{fill:url(#linear-gradient-67);}.cls-85{fill:url(#linear-gradient-68);}.cls-86{fill:url(#linear-gradient-69);}.cls-87{fill:url(#linear-gradient-70);}.cls-88{fill:url(#linear-gradient-71);}.cls-89{fill:url(#linear-gradient-72);}.cls-90{fill:url(#linear-gradient-73);}.cls-91{fill:url(#linear-gradient-74);}.cls-92{fill:url(#linear-gradient-75);}.cls-93{fill:url(#linear-gradient-76);}.cls-94{fill:url(#linear-gradient-77);}.cls-95{fill:url(#linear-gradient-78);}.cls-96{fill:url(#linear-gradient-79);}.cls-97{fill:url(#linear-gradient-80);}.cls-98{fill:url(#linear-gradient-81);}.cls-99{fill:url(#linear-gradient-82);}.cls-100{fill:url(#linear-gradient-83);}.cls-101{fill:url(#linear-gradient-84);}</style><linearGradient id="linear-gradient" x1="-104.88" y1="1242.47" x2="-576.48" y2="1714.07" gradientTransform="translate(755.74 -1089.06)" gradientUnits="userSpaceOnUse"><stop offset="0" stop-color="#77bee9"/><stop offset="1" stop-color="#2aace2"/></linearGradient><linearGradient id="linear-gradient-2" x1="-11604.32" y1="-101.72" x2="-11427.44" y2="-101.72" gradientTransform="matrix(-1, -0.05, -0.05, 1, -11295.04, -289.73)" gradientUnits="userSpaceOnUse"><stop offset="0" stop-color="#fff100"/><stop offset="1" stop-color="#f9a729"/></linearGradient><linearGradient id="linear-gradient-3" x1="-11587.39" y1="-155.11" x2="-11503.66" y2="-155.11" xlink:href="#linear-gradient-2"/><linearGradient id="linear-gradient-4" x1="493.73" y1="428.47" x2="220.7" y2="428.47" gradientUnits="userSpaceOnUse"><stop offset="0" stop-color="#eebe63"/><stop offset="1" stop-color="#dc3b57"/></linearGradient><linearGradient id="linear-gradient-5" x1="493.73" y1="443.39" x2="220.7" y2="443.39" xlink:href="#linear-gradient-4"/><linearGradient id="linear-gradient-6" x1="493.72" y1="458.32" x2="220.7" y2="458.32" xlink:href="#linear-gradient-4"/><linearGradient id="linear-gradient-7" x1="196.13" y1="317.73" x2="286.33" y2="317.73" gradientTransform="matrix(1, 0, 0, 1, 0, 0)" xlink:href="#linear-gradient"/><linearGradient id="linear-gradient-8" x1="196.15" y1="295.7" x2="231.15" y2="295.7" gradientUnits="userSpaceOnUse"><stop offset="0" stop-color="#00a0e3"/><stop offset="1" stop-color="#007ac1"/></linearGradient><linearGradient id="linear-gradient-9" x1="227.79" y1="279.68" x2="259.22" y2="279.68" xlink:href="#linear-gradient-8"/><linearGradient id="linear-gradient-10" x1="254.72" y1="284.18" x2="270.44" y2="284.18" xlink:href="#linear-gradient-8"/><linearGradient id="linear-gradient-11" x1="411.54" y1="451.24" x2="427.19" y2="451.24" gradientTransform="matrix(1, 0, 0, 1, 0, 0)" xlink:href="#linear-gradient"/><linearGradient id="linear-gradient-12" x1="388.28" y1="458.76" x2="403.92" y2="458.76" gradientTransform="matrix(1, 0, 0, 1, 0, 0)" xlink:href="#linear-gradient"/><linearGradient id="linear-gradient-13" x1="434.11" y1="438.82" x2="449.75" y2="438.82" gradientTransform="matrix(1, 0, 0, 1, 0, 0)" xlink:href="#linear-gradient"/><linearGradient id="linear-gradient-14" x1="84.46" y1="483.39" x2="183.65" y2="483.39" xlink:href="#linear-gradient-8"/><linearGradient id="linear-gradient-15" x1="157.22" y1="538.74" x2="246.92" y2="538.74" gradientUnits="userSpaceOnUse"><stop offset="0" stop-color="#81d3e4"/><stop offset="1" stop-color="#6076fa"/></linearGradient><linearGradient id="linear-gradient-16" x1="164.89" y1="551.79" x2="232.22" y2="551.79" xlink:href="#linear-gradient-15"/><linearGradient id="linear-gradient-17" x1="140.58" y1="497.61" x2="218.98" y2="497.61" gradientTransform="matrix(1, 0, 0, 1, 0, 0)" xlink:href="#linear-gradient"/><linearGradient id="linear-gradient-18" x1="122.59" y1="610.07" x2="194.94" y2="610.07" gradientTransform="matrix(1, 0, 0, 1, 0, 0)" xlink:href="#linear-gradient-2"/><linearGradient id="linear-gradient-19" x1="255.17" y1="577.63" x2="259.89" y2="577.63" gradientTransform="translate(515.06 1155.26) rotate(-180)" gradientUnits="userSpaceOnUse"><stop offset="0" stop-color="#948c87"/><stop offset="1" stop-color="#b2a8a3"/></linearGradient><linearGradient id="linear-gradient-20" x1="304.99" y1="475.14" x2="319.15" y2="475.14" gradientTransform="matrix(1, 0, 0, 1, 0, 0)" xlink:href="#linear-gradient-19"/><linearGradient id="linear-gradient-21" x1="228.65" y1="500.84" x2="435.95" y2="500.84" gradientUnits="userSpaceOnUse"><stop offset="0" stop-color="#b2a8a3"/><stop offset="1" stop-color="#dcd0c8"/></linearGradient><linearGradient id="linear-gradient-22" x1="172.03" y1="470.24" x2="211.77" y2="470.24" gradientUnits="userSpaceOnUse"><stop offset="0" stop-color="#231f20"/><stop offset="1" stop-color="#58595b"/></linearGradient><linearGradient id="linear-gradient-23" x1="197.47" y1="393.93" x2="231.72" y2="393.93" xlink:href="#linear-gradient-22"/><linearGradient id="linear-gradient-24" x1="168.84" y1="637.35" x2="222.15" y2="637.35" xlink:href="#linear-gradient-21"/><linearGradient id="linear-gradient-25" x1="218.01" y1="602.02" x2="223.93" y2="602.02" xlink:href="#linear-gradient-21"/><linearGradient id="linear-gradient-26" x1="220.26" y1="637.13" x2="273.56" y2="637.13" xlink:href="#linear-gradient-21"/><linearGradient id="linear-gradient-27" x1="220.26" y1="638.96" x2="236.87" y2="638.96" xlink:href="#linear-gradient-21"/><linearGradient id="linear-gradient-28" x1="268.69" y1="650.28" x2="278.42" y2="650.28" gradientUnits="userSpaceOnUse"><stop offset="0" stop-color="#dcd0c8"/><stop offset="1" stop-color="#eae3df"/></linearGradient><linearGradient id="linear-gradient-29" x1="227.55" y1="650.28" x2="237.29" y2="650.28" xlink:href="#linear-gradient-28"/><linearGradient id="linear-gradient-30" x1="163.98" y1="650.28" x2="173.71" y2="650.28" xlink:href="#linear-gradient-28"/><linearGradient id="linear-gradient-31" x1="179.85" y1="564.39" x2="262.55" y2="564.39" xlink:href="#linear-gradient-28"/><linearGradient id="linear-gradient-32" x1="404.71" y1="577.63" x2="409.43" y2="577.63" gradientTransform="matrix(1, 0, 0, 1, 0, 0)" xlink:href="#linear-gradient-19"/><linearGradient id="linear-gradient-33" x1="250.9" y1="431.2" x2="373.24" y2="431.2" xlink:href="#linear-gradient-21"/><linearGradient id="linear-gradient-34" x1="354.35" y1="467.25" x2="363.44" y2="467.25" gradientTransform="matrix(1, 0, 0, 1, 0, 0)" xlink:href="#linear-gradient-19"/><linearGradient id="linear-gradient-35" x1="305" y1="491.28" x2="337.4" y2="491.28" gradientTransform="matrix(1, 0, 0, 1, 0, 0)" xlink:href="#linear-gradient-19"/><linearGradient id="linear-gradient-36" x1="175.26" y1="489.79" x2="308.25" y2="489.79" xlink:href="#linear-gradient-22"/><linearGradient id="linear-gradient-37" x1="160.54" y1="509.73" x2="217.56" y2="509.73" xlink:href="#linear-gradient-28"/><linearGradient id="linear-gradient-38" x1="177.73" y1="544.11" x2="210.63" y2="544.11" xlink:href="#linear-gradient-28"/><linearGradient id="linear-gradient-39" x1="263.68" y1="399.94" x2="296.71" y2="399.94" xlink:href="#linear-gradient-28"/><linearGradient id="linear-gradient-40" x1="263.68" y1="407.65" x2="296.71" y2="407.65" xlink:href="#linear-gradient-28"/><linearGradient id="linear-gradient-41" x1="263.68" y1="435.05" x2="296.71" y2="435.05" xlink:href="#linear-gradient-28"/><linearGradient id="linear-gradient-42" x1="303.38" y1="426.77" x2="362.2" y2="426.77" xlink:href="#linear-gradient-28"/><linearGradient id="linear-gradient-43" x1="278.79" y1="143.6" x2="411.32" y2="143.6" gradientTransform="matrix(1, 0, 0, 1, 0, 0)" xlink:href="#linear-gradient"/><linearGradient id="linear-gradient-44" x1="281.82" y1="103.08" x2="343.57" y2="103.08" xlink:href="#linear-gradient-8"/><linearGradient id="linear-gradient-45" x1="278.79" y1="146.95" x2="299.52" y2="146.95" xlink:href="#linear-gradient-8"/><linearGradient id="linear-gradient-46" x1="284.31" y1="174.98" x2="307.21" y2="174.98" xlink:href="#linear-gradient-8"/><linearGradient id="linear-gradient-47" x1="433.62" y1="182.68" x2="445.36" y2="182.68" xlink:href="#linear-gradient-8"/><linearGradient id="linear-gradient-48" x1="462.75" y1="188.01" x2="474.48" y2="188.01" xlink:href="#linear-gradient-8"/><linearGradient id="linear-gradient-49" x1="491.88" y1="184.09" x2="503.61" y2="184.09" xlink:href="#linear-gradient-8"/><linearGradient id="linear-gradient-50" x1="521" y1="191.83" x2="532.74" y2="191.83" xlink:href="#linear-gradient-8"/><linearGradient id="linear-gradient-51" x1="550.13" y1="184.9" x2="561.86" y2="184.9" xlink:href="#linear-gradient-8"/><linearGradient id="linear-gradient-52" x1="579.26" y1="181.28" x2="590.99" y2="181.28" xlink:href="#linear-gradient-8"/><linearGradient id="linear-gradient-53" x1="608.39" y1="179.77" x2="620.11" y2="179.77" xlink:href="#linear-gradient-8"/><linearGradient id="linear-gradient-54" x1="640.52" y1="182.68" x2="652.25" y2="182.68" xlink:href="#linear-gradient-8"/><linearGradient id="linear-gradient-55" x1="669.65" y1="188.01" x2="681.38" y2="188.01" xlink:href="#linear-gradient-8"/><linearGradient id="linear-gradient-56" x1="698.78" y1="184.09" x2="710.5" y2="184.09" xlink:href="#linear-gradient-8"/><linearGradient id="linear-gradient-57" x1="727.9" y1="191.83" x2="739.63" y2="191.83" xlink:href="#linear-gradient-8"/><linearGradient id="linear-gradient-58" x1="427.12" y1="78.11" x2="739.63" y2="78.11" gradientTransform="translate(1166.75 156.22) rotate(-180)" xlink:href="#linear-gradient-8"/><linearGradient id="linear-gradient-59" x1="427.12" y1="98.93" x2="739.63" y2="98.93" gradientTransform="translate(1166.75 197.85) rotate(180)" xlink:href="#linear-gradient"/><linearGradient id="linear-gradient-60" x1="501.79" y1="428.19" x2="502.41" y2="428.19" gradientTransform="matrix(1, 0, 0, 1, 0, 0)" xlink:href="#linear-gradient"/><linearGradient id="linear-gradient-61" x1="532.06" y1="428.19" x2="532.68" y2="428.19" gradientTransform="matrix(1, 0, 0, 1, 0, 0)" xlink:href="#linear-gradient"/><linearGradient id="linear-gradient-62" x1="562.32" y1="428.19" x2="562.95" y2="428.19" gradientTransform="matrix(1, 0, 0, 1, 0, 0)" xlink:href="#linear-gradient"/><linearGradient id="linear-gradient-63" x1="592.59" y1="428.19" x2="593.21" y2="428.19" gradientTransform="matrix(1, 0, 0, 1, 0, 0)" xlink:href="#linear-gradient"/><linearGradient id="linear-gradient-64" x1="622.86" y1="428.19" x2="623.48" y2="428.19" gradientTransform="matrix(1, 0, 0, 1, 0, 0)" xlink:href="#linear-gradient"/><linearGradient id="linear-gradient-65" x1="502.1" y1="431.05" x2="623.17" y2="431.05" xlink:href="#linear-gradient-8"/><linearGradient id="linear-gradient-66" x1="532.37" y1="383.08" x2="539.89" y2="383.08" gradientTransform="matrix(1, 0, 0, 1, 0, 0)" xlink:href="#linear-gradient"/><linearGradient id="linear-gradient-67" x1="501.79" y1="383.08" x2="512.03" y2="383.08" gradientTransform="matrix(1, 0, 0, 1, 0, 0)" xlink:href="#linear-gradient"/><linearGradient id="linear-gradient-68" x1="562.64" y1="383.08" x2="571.9" y2="383.08" gradientTransform="matrix(1, 0, 0, 1, 0, 0)" xlink:href="#linear-gradient"/><linearGradient id="linear-gradient-69" x1="592.59" y1="383.08" x2="601.86" y2="383.08" gradientTransform="matrix(1, 0, 0, 1, 0, 0)" xlink:href="#linear-gradient"/><linearGradient id="linear-gradient-70" x1="613.9" y1="383.08" x2="623.17" y2="383.08" gradientTransform="matrix(1, 0, 0, 1, 0, 0)" xlink:href="#linear-gradient"/><linearGradient id="linear-gradient-71" x1="577.4" y1="331.69" x2="617.88" y2="331.69" xlink:href="#linear-gradient-8"/><linearGradient id="linear-gradient-72" x1="577.4" y1="353.15" x2="614.56" y2="353.15" xlink:href="#linear-gradient-8"/><linearGradient id="linear-gradient-73" x1="577.4" y1="342.42" x2="609.55" y2="342.42" xlink:href="#linear-gradient-8"/><linearGradient id="linear-gradient-74" x1="526.96" y1="321.83" x2="541.12" y2="321.83" gradientTransform="matrix(1, 0, 0, 1, 0, 0)" xlink:href="#linear-gradient"/><linearGradient id="linear-gradient-75" x1="521.15" y1="346.59" x2="546.81" y2="346.59" gradientTransform="matrix(1, 0, 0, 1, 0, 0)" xlink:href="#linear-gradient"/><linearGradient id="linear-gradient-76" x1="502.1" y1="330.08" x2="565.86" y2="330.08" gradientTransform="matrix(1, 0, 0, 1, 0, 0)" xlink:href="#linear-gradient"/><linearGradient id="linear-gradient-77" x1="577.97" y1="297.35" x2="616.48" y2="297.35" gradientTransform="matrix(1, 0, 0, 1, 0, 0)" xlink:href="#linear-gradient"/><linearGradient id="linear-gradient-78" x1="532.54" y1="261.28" x2="561.56" y2="261.28" gradientTransform="matrix(1, 0, 0, 1, 0, 0)" xlink:href="#linear-gradient"/><linearGradient id="linear-gradient-79" x1="536.81" y1="273.21" x2="561.56" y2="273.21" gradientTransform="matrix(1, 0, 0, 1, 0, 0)" xlink:href="#linear-gradient"/><linearGradient id="linear-gradient-80" x1="521.78" y1="285.13" x2="561.56" y2="285.13" gradientTransform="matrix(1, 0, 0, 1, 0, 0)" xlink:href="#linear-gradient"/><linearGradient id="linear-gradient-81" x1="650.99" y1="264.3" x2="684.64" y2="264.3" gradientTransform="matrix(1, 0, 0, 1, 0, 0)" xlink:href="#linear-gradient"/><linearGradient id="linear-gradient-82" x1="650.99" y1="253.21" x2="677.36" y2="253.21" gradientTransform="matrix(1, 0, 0, 1, 0, 0)" xlink:href="#linear-gradient"/><linearGradient id="linear-gradient-83" x1="650.99" y1="277.76" x2="732.07" y2="277.76" gradientTransform="matrix(1, 0, 0, 1, 0, 0)" xlink:href="#linear-gradient"/><linearGradient id="linear-gradient-84" x1="650.99" y1="283.64" x2="731.85" y2="283.64" xlink:href="#linear-gradient-8"/></defs><title>login</title><g class="cls-1"><g id="Layer_2" data-name="Layer 2"><g id="Layer_1-2" data-name="Layer 1"><path class="cls-2" d="M470.19,648.44c92.15-33,95.8-94.35,182-80.77s139.07.38,195.51-63.81,35.36-185-117.58-214.79c-145.8-28.39-170.13-121.5-196-187.63C502.82,21.2,408.76-12.12,311.56,3.92S174.41,76.22,148.25,132c-22,47-14.07,119.89-79.63,145.62-89.88,35.26-106.45,201.34,42.09,250.27C304.1,591.56,302.71,708.4,470.19,648.44Z"/><path class="cls-3" d="M282.42,237.62c11.47,25,17.91,48.7,9.47,59.26a14.82,14.82,0,0,1-1.64,1.72c-6.5,5.72-19.29,5.85-40.88-2.68-57.47-22.7-60.2-61.87-71.82-100.13-11.46-37.78-51.48-31.39-52.5-31.23C218.31,132.08,263,195.2,282.42,237.62Z"/><g class="cls-4"><path class="cls-5" d="M291.89,296.88a14.82,14.82,0,0,1-1.64,1.72c-10.79-6.51-31.46-20.3-41.21-35.77-4.59-7.31-8.46-15.52-12.56-24.21-7.73-16.44-15.74-33.43-29.72-46.47l1.56-1.68c14.3,13.35,22.4,30.54,30.23,47.18,4.06,8.63,7.89,16.78,12.43,24C260.48,276.71,281.36,290.54,291.89,296.88Z"/></g><path class="cls-6" d="M272.43,247.84c-.67,1.67-1.11,2.61-1.16,2.72-.17-.92-.34-1.84-.52-2.72-7.67-39.28-17.92-43.38-48.66-77.74-31.43-35.15-13.35-67.89-13.35-67.89C314.05,132.64,279.59,230.28,272.43,247.84Z"/><g class="cls-4"><path class="cls-5" d="M272.43,247.84c-.67,1.67-1.11,2.61-1.16,2.72-.17-.92-.34-1.84-.52-2.72,3.41-34-17.07-73.8-23.51-81-6.66-7.41-10.77-17.59-12.32-21.43-.26-.63-.5-1.24-.58-1.38l1.48-.84c.13.23.3.66.68,1.59,1.52,3.75,5.55,13.74,12,20.91C256.67,174.81,275.57,214.85,272.43,247.84Z"/></g><path class="cls-5" d="M304.7,44.37h411a49.51,49.51,0,0,1,49.51,49.51v90.35a49.52,49.52,0,0,1-49.52,49.52h-411a49.51,49.51,0,0,1-49.51-49.51V93.88A49.51,49.51,0,0,1,304.7,44.37Z"/><rect class="cls-7" x="281.9" y="455.12" width="191.24" height="6.39"/><rect class="cls-8" x="281.9" y="425.27" width="142.03" height="6.4"/><rect class="cls-9" x="281.9" y="440.19" width="153.46" height="6.4"/><rect class="cls-10" x="281.9" y="455.12" width="99.57" height="6.39"/><path class="cls-5" d="M201.62,244H448.68a36.74,36.74,0,0,1,36.74,36.74v220a36.73,36.73,0,0,1-36.73,36.73H201.63a36.74,36.74,0,0,1-36.74-36.74v-220A36.73,36.73,0,0,1,201.62,244Z"/><path class="cls-11" d="M283.68,332.91a45.09,45.09,0,0,0-24.46-56.53c-.92-.39-1.86-.76-2.81-1.1a45.08,45.08,0,1,0,27.27,57.63Zm-53.84,16.65a33.8,33.8,0,1,1,22.77-63.66c.71.26,1.42.54,2.11.83a33.81,33.81,0,0,1-24.88,62.83Z"/><path class="cls-12" d="M231.15,285.46l-3.36-10.77a45.11,45.11,0,0,0-31.64,41.69l11.28.34a33.87,33.87,0,0,1,23.72-31.26Z"/><g class="cls-13"><path class="cls-14" d="M254.72,286.73l4.5-10.35c-.92-.39-1.86-.76-2.81-1.1a44.82,44.82,0,0,0-28.62-.59l3.36,10.77a33.68,33.68,0,0,1,21.46.44C253.32,286.16,254,286.44,254.72,286.73Z"/></g><g class="cls-15"><path class="cls-16" d="M270.44,283.38a44.67,44.67,0,0,0-11.22-7l-4.5,10.35a33.93,33.93,0,0,1,8.41,5.24Z"/></g><rect class="cls-17" x="411.54" y="424.44" width="15.65" height="53.59" rx="6.88"/><rect class="cls-18" x="388.28" y="439.48" width="15.65" height="38.56" rx="6.88"/><rect class="cls-19" x="434.11" y="399.6" width="15.65" height="78.43" rx="6.88"/><path class="cls-20" d="M396.77,289h44.5a5.09,5.09,0,0,0,5.08-5.09h0a5.08,5.08,0,0,0-5.08-5.08h-44.5a5.08,5.08,0,0,0-5.09,5.08h0A5.09,5.09,0,0,0,396.77,289Z"/><path class="cls-21" d="M396.77,306.75h44.5a5.09,5.09,0,0,0,5.08-5.09h0a5.09,5.09,0,0,0-5.08-5.09h-44.5a5.09,5.09,0,0,0-5.09,5.09h0A5.09,5.09,0,0,0,396.77,306.75Z"/><path class="cls-21" d="M396.77,324.5h44.5a5.09,5.09,0,0,0,5.08-5.09h0a5.09,5.09,0,0,0-5.08-5.09h-44.5a5.09,5.09,0,0,0-5.09,5.09h0A5.09,5.09,0,0,0,396.77,324.5Z"/><path class="cls-22" d="M93.12,352.32c8.56-4.09,17.07,23.14,17.07,23.14,14.54,19.21,34.85-6.34,32.87,22.37-3.48,50.25,57.83,15.8,29.55,68.26s25,29.66,7.39,72,5.21,92.75-21.24,72c0,0-23.29-51.07-47.31-66.87s14.39-34.55,6.88-56c-10.92-31.17-37.21-29.95-18.25-63.44S64.05,366.23,93.12,352.32Z"/><path class="cls-7" d="M167.14,590.85c-11.47-8.06-24.89-64.25-25.69-97.71C141,476,136,468.85,131.5,462.55c-4.27-6-8-11.23-5.81-23.17,4.11-22.83-6.69-32.68-6.8-32.78l1.25-1.42c.48.42,11.73,10.58,7.42,34.53-2,11.17,1.3,15.83,5.49,21.74,4.4,6.2,9.87,13.92,10.3,31.64.86,35.92,14.57,89,24.88,96.21Z"/><path class="cls-23" d="M171.42,595a24.22,24.22,0,0,1-4.84-.53c-4.42-.89-7.32-3.22-8.61-6.93-3.09-8.83,4.07-23.19,9.88-30.11.1-.12,9.82-12,8.79-28.49-.18-2.76-.47-5.32-.72-7.57-.73-6.52-1.26-11.24,1.54-14.38,2.47-2.78,7.24-4,15.94-4,15.25-.07,21.29-6.39,26.14-11.46a27.62,27.62,0,0,1,6.36-5.48h0c7.61-4.16,15.66-4.77,19.15-1.45,1.66,1.57,3.06,4.65.31,10.39A40.11,40.11,0,0,1,237,506.24c-3.52,3.59-5.85,6-4.64,10.7.29,1.11.61,2.23.94,3.35,2.36,8.05,5,17.17-8.75,23.35-2.92,1.32-5.58,2.36-7.93,3.28-9.61,3.78-15.41,6.05-22,19.88-1.27,2.68-2.39,5.21-3.47,7.66C186,586.17,182.1,595,171.42,595Zm55.39-107.31a26,26,0,0,0-5.9,5.13c-5.1,5.33-11.44,12-27.5,12.05-8,0-12.48,1.08-14.53,3.38-2.24,2.51-1.75,6.87-1.07,12.91.25,2.27.54,4.86.72,7.66a45.24,45.24,0,0,1-9.23,29.82c-5.75,6.85-12.27,20.49-9.54,28.28,1.06,3,3.48,4.94,7.19,5.69,13,2.63,16.55-5.49,22.48-18.93,1.09-2.47,2.22-5,3.49-7.71,6.87-14.51,13.28-17,23-20.83,2.33-.92,5-1.95,7.84-3.24,12.27-5.52,10.06-13.08,7.71-21.09-.33-1.15-.67-2.29-1-3.42-1.48-5.77,1.43-8.74,5.11-12.5a38,38,0,0,0,8-10.74c1.25-2.6,2.28-6.14.1-8.2-2.87-2.72-10.15-2-16.94,1.74Z"/><path class="cls-24" d="M166.78,606l-1.89-.09c.09-1.78,2.48-43.72,19.32-56,18.47-13.46,24.29-27.93,27.07-37.64,3.26-11.45,19.9-14.5,20.61-14.63l.33,1.87c-.17,0-16.18,3-19.12,13.28-2.85,10-8.83,24.85-27.78,38.65C169.21,563.16,166.8,605.54,166.78,606Z"/><path class="cls-25" d="M205.28,394.64c-12-4.1-9.48,19-14.54,36s-56.25,7.44-34.76,50.17-27.18,14.3-12.64,51.59,1.26,77.17,17.06,67,8.88-57.11,25.31-62.69,19.12-12.09,2.84-27.25,42.64-30.23,28.1-60.86S219.1,399.38,205.28,394.64Z"/><path class="cls-7" d="M167.73,597.67c-1.5-6.38-14.35-62.57-2.36-69.36,10.57-6,10.31-29.26,8.66-51.24-1.46-19.46,23.53-28.56,24.6-28.94l.63,1.79c-.25.09-24.69,9-23.34,27,1.69,22.58,1.88,46.53-9.62,53-9.1,5.16-.72,50.31,3.28,67.27Z"/><polygon class="cls-26" points="194.94 577.67 177.85 642.48 139.67 642.48 122.58 577.67 194.94 577.67"/><rect class="cls-27" x="247.96" y="493.46" width="53.83" height="3.19"/><rect class="cls-28" x="255.17" y="504.97" width="4.72" height="145.31" transform="translate(515.06 1155.26) rotate(180)"/><rect class="cls-29" x="293.36" y="492.55" width="37.41" height="4.56"/><rect class="cls-30" x="304.99" y="453.62" width="14.17" height="43.03"/><rect class="cls-31" x="228.65" y="496.71" width="207.3" height="8.26" rx="3.63"/><path class="cls-32" d="M188.86,446.7s-2.26,31.79,3.95,35.6c3.89,2.38,19.41,10.42,18.95,11.93S203,507.65,203,507.65,173.19,488,172.23,481.83c-.94-6,1.47-46.55,5.57-48.42,3.06-1.39,4.68-.24,8.55,2.63C191.78,440.08,188.86,446.7,188.86,446.7Z"/><path class="cls-33" d="M225.54,630.44s-.93,6.44-1,7.4-10.31-.57-10.31-.57l-.82-7.66S224.26,629.54,225.54,630.44Z"/><path class="cls-34" d="M224.6,637s3.23,3.88,6.36,5.57,8,2.36,9.88,4.11c1.33,1.26,4.85,6.7-8.12,6.59s-19.23.77-20.62-1.32,2-15.38,2-15.38S217.18,637.7,224.6,637Z"/><path class="cls-33" d="M290.85,630.51s-.92,6.43-1,7.39-10.31-.56-10.31-.56l-.82-7.66S289.58,629.6,290.85,630.51Z"/><path class="cls-34" d="M289.92,637.09a27.61,27.61,0,0,0,6.35,5.56c3.13,1.69,14.62,3.08,16.47,4.83,1.34,1.26,3.55,6.35-14.7,5.87-13-.34-19.24.77-20.62-1.32s2-15.38,2-15.38S282.32,637.83,289.92,637.09Z"/><path class="cls-34" d="M192.65,519.31s37.07,6.28,45.44,7.59,53.76,12.61,59.44,16.05c4.52,2.74-2.37,68.54-4,93.64H275.67l-1.29-75.3c-21.46.53-36.77-5-52.39-2.65s-28.65,5.75-38.58-7.57C183.41,551.07,183.05,522.23,192.65,519.31Z"/><path class="cls-34" d="M229.19,636.65l-17.43-1.08-1.69-74.28c-9.24.23-12.41-.36-19.88-1.26l-14.07-32.7c12.33,2.46,51.83,12.43,57.1,15.62C237.74,545.69,230.8,611.55,229.19,636.65Z"/><path class="cls-35" d="M209.72,380.38s13.58-3.75,18.77,6.8,2.83,30.54-4,32.42-16.69-.29-19.53-6.85-5.11-15.89-4.43-21.94S206.11,381.82,209.72,380.38Z"/><path class="cls-35" d="M220.92,417.49s-.15,8,.74,9.74-18.92,1.28-18.92,1.28,3.12-9.64,1.35-17.84S220.92,417.49,220.92,417.49Z"/><path class="cls-27" d="M222.7,427s-.06-3.27-1.54-3.58-15.56-2.25-17.38-1.54l-.78,4.32S206.5,428.37,222.7,427Z"/><path class="cls-35" d="M226.77,399.1c-.38-2.68-3.42-5.75-5.16-1.58s1.18,10.24,3.13,9.92S227.29,402.73,226.77,399.1Z"/><path class="cls-36" d="M281.7,465.63h0Z"/><path class="cls-37" d="M212.54,379.05a27.81,27.81,0,0,0-9,3.49c-3.89.89-10.69,5-1.43,23.35a12.5,12.5,0,0,0,.69,1.37l.06.12v0c.06.09.11.19.16.27s1.06,2.15,6.19,1.8,11.88-6.53,14.06-7.08,2.3-1.79,2.3-1.79l1.16,2.05L229,403s-1.52-6.2,1.78-8.38S229.26,374.81,212.54,379.05Z"/><polygon class="cls-38" points="168.84 645.46 170.08 648.93 222.15 632.79 219.65 625.77 168.84 645.46"/><rect class="cls-39" x="218.01" y="573.71" width="5.92" height="56.61"/><rect class="cls-40" x="203.52" y="570.7" width="34.91" height="3.34"/><polygon class="cls-41" points="273.56 645.46 272.33 648.93 220.26 632.79 222.55 625.34 273.56 645.46"/><polygon class="cls-42" points="236.87 648.56 236.87 652.59 220.26 632.79 222.55 625.34 236.87 648.56"/><path class="cls-43" d="M278.42,650.28a4.87,4.87,0,1,1-4.86-4.86A4.86,4.86,0,0,1,278.42,650.28Z"/><path class="cls-44" d="M237.29,650.28a4.87,4.87,0,1,1-4.87-4.86A4.87,4.87,0,0,1,237.29,650.28Z"/><path class="cls-45" d="M173.71,650.28a4.87,4.87,0,1,1-4.87-4.86A4.87,4.87,0,0,1,173.71,650.28Z"/><path class="cls-46" d="M256.23,570.7H186.17a6.31,6.31,0,0,1-6.32-6.31h0a6.32,6.32,0,0,1,6.32-6.32h70.06a6.32,6.32,0,0,1,6.32,6.32h0A6.31,6.31,0,0,1,256.23,570.7Z"/><rect class="cls-47" x="404.71" y="504.97" width="4.72" height="145.31"/><rect class="cls-48" x="250.9" y="388.05" width="122.34" height="86.31" rx="11.71"/><rect class="cls-49" x="255.69" y="392.71" width="112.76" height="68.12" rx="7.68"/><path class="cls-50" d="M363.44,467.25c0,1.94-2,3.51-4.55,3.51s-4.54-1.57-4.54-3.51,2-3.5,4.54-3.5S363.44,465.32,363.44,467.25Z"/><path class="cls-51" d="M337.4,496.82v-1.54s-2.16-9.55-17.44-9.55-15,11.09-15,11.09Z"/><path class="cls-35" d="M304.82,487.15s3.31-.26,4.53-1,8.49-5.63,10.2-4.84,13.07,4.26,12.68,5.92-1.45,1.51-2.25,1.21-9.06-2-9.79-1.73c0,0,8.11,3,8.14,5.11s-1.69,2.69-2.46,3.51-1.69,2.84-3.78,3-12.29-3.39-14.39-3.55-6,.13-6.24-.21S304.82,487.15,304.82,487.15Z"/><path class="cls-52" d="M244.41,431.55C233.83,429.69,222.7,427,222.7,427l-19.7-.8s-18.08,4-25.2,7.19c-.68.31-.68,16.13-2.54,20.29l5.91,12.45s3.41,24.67,4.11,35.65c.33,5-.91,48.68-.91,48.68s1.77.87,15.21,2.36,47-.54,47.26-2.12-6.51-59.14-6.81-62.12c-.45-4.58,1.32-25.71,1.32-25.71,2.54,3.4,9,18.77,15.73,26.08,4,4.3,23.57,6.94,27.26,7.06,8.05.27,22.72,1.87,23.16,1.09.34-.47,1.27-13,.35-13.34s-28.06-1.83-35-5.54c-2.55-1.35-10.19-18-10.19-18S250.25,434.17,244.41,431.55Z"/><path class="cls-53" d="M183.08,470.23h12a22.54,22.54,0,0,1,22.54,22.54v33.92A22.53,22.53,0,0,1,195,549.22h-12a22.53,22.53,0,0,1-22.53-22.53V492.77a22.54,22.54,0,0,1,22.54-22.54Z"/><path class="cls-54" d="M207.46,567.56c-8.41,0-15.23-2.82-20.27-8.39-11.4-12.59-9.35-34.71-9.26-35.65a3.17,3.17,0,1,1,6.31.63c0,.25-1.84,20.3,7.66,30.77,3.85,4.24,8.93,6.3,15.56,6.3a3.17,3.17,0,1,1,0,6.34Z"/><rect class="cls-55" x="263.68" y="398.13" width="33.03" height="3.6" rx="1.43"/><path class="cls-56" d="M265.11,405.85h30.18a1.43,1.43,0,0,1,1.43,1.43V408a1.43,1.43,0,0,1-1.43,1.43H265.11a1.43,1.43,0,0,1-1.43-1.43v-.75a1.42,1.42,0,0,1,1.42-1.42Z"/><path class="cls-57" d="M269.33,414.71h21.74a5.65,5.65,0,0,1,5.65,5.65v29.41a5.64,5.64,0,0,1-5.64,5.64H269.33a5.65,5.65,0,0,1-5.65-5.65V420.35A5.64,5.64,0,0,1,269.33,414.71Z"/><rect class="cls-58" x="303.38" y="398.13" width="58.82" height="57.27" rx="8.93"/><path class="cls-59" d="M407.43,121.29a66.24,66.24,0,0,0-124.75,44.62c.51,1.4,1.05,2.78,1.63,4.13a66.25,66.25,0,0,0,123.12-48.75Zm-45.65,69.08a49.58,49.58,0,0,1-62.26-27c-.44-1-.85-2-1.23-3.1a49.67,49.67,0,1,1,63.49,30.05Z"/><path class="cls-60" d="M297.65,128.8l-15.83-4.94a66.3,66.3,0,0,1,61.26-46.49l.49,16.57a49.77,49.77,0,0,0-45.92,34.86Z"/><g class="cls-13"><path class="cls-61" d="M299.52,163.42,284.31,170c-.58-1.35-1.12-2.73-1.63-4.13a65.93,65.93,0,0,1-.86-42l15.83,4.94a49.39,49.39,0,0,0,.64,31.52C298.67,161.38,299.08,162.41,299.52,163.42Z"/></g><g class="cls-15"><path class="cls-62" d="M294.58,186.53A66.26,66.26,0,0,1,284.31,170l15.21-6.62a49.41,49.41,0,0,0,7.69,12.37Z"/></g><rect class="cls-63" x="433.62" y="125.34" width="11.73" height="83.55" rx="5.86"/><rect class="cls-63" x="462.75" y="142.32" width="11.73" height="66.57" rx="5.86"/><rect class="cls-63" x="491.88" y="129.83" width="11.73" height="79.07" rx="5.86"/><rect class="cls-63" x="521" y="154.49" width="11.73" height="54.4" rx="5.86"/><rect class="cls-63" x="550.13" y="132.39" width="11.73" height="76.5" rx="5.86"/><rect class="cls-63" x="579.26" y="120.86" width="11.73" height="88.04" rx="5.86"/><rect class="cls-63" x="608.39" y="116.05" width="11.73" height="92.84" rx="5.86"/><rect class="cls-64" x="433.62" y="156.48" width="11.73" height="52.42" rx="5.86"/><rect class="cls-65" x="462.75" y="167.13" width="11.73" height="41.77" rx="5.86"/><rect class="cls-66" x="491.88" y="159.29" width="11.73" height="49.61" rx="5.86"/><rect class="cls-67" x="521" y="174.76" width="11.73" height="34.13" rx="5.86"/><rect class="cls-68" x="550.13" y="160.9" width="11.73" height="48" rx="5.86"/><rect class="cls-69" x="579.26" y="153.66" width="11.73" height="55.23" rx="5.86"/><rect class="cls-70" x="608.39" y="150.65" width="11.73" height="58.25" rx="5.86"/><rect class="cls-63" x="640.52" y="125.34" width="11.73" height="83.55" rx="5.86"/><rect class="cls-63" x="669.65" y="142.32" width="11.73" height="66.57" rx="5.86"/><rect class="cls-63" x="698.78" y="129.83" width="11.73" height="79.07" rx="5.86"/><rect class="cls-63" x="727.9" y="154.49" width="11.73" height="54.4" rx="5.86"/><rect class="cls-71" x="640.52" y="156.48" width="11.73" height="52.42" rx="5.86"/><rect class="cls-72" x="669.65" y="167.13" width="11.73" height="41.77" rx="5.86"/><rect class="cls-73" x="698.78" y="159.29" width="11.73" height="49.61" rx="5.86"/><rect class="cls-74" x="727.9" y="174.76" width="11.73" height="34.13" rx="5.86"/><path class="cls-75" d="M432.36,72.14h302a5.25,5.25,0,0,1,5.25,5.25v1.44a5.25,5.25,0,0,1-5.25,5.25h-302a5.24,5.24,0,0,1-5.24-5.24V77.39A5.25,5.25,0,0,1,432.36,72.14Z" transform="translate(1166.75 156.22) rotate(180)"/><path class="cls-76" d="M432.36,93h302a5.25,5.25,0,0,1,5.25,5.25v1.44a5.25,5.25,0,0,1-5.25,5.25h-302a5.24,5.24,0,0,1-5.24-5.24V98.21A5.25,5.25,0,0,1,432.36,93Z" transform="translate(1166.75 197.85) rotate(-180)"/><path class="cls-5" d="M515,244.22h96.06a23.13,23.13,0,0,1,23.13,23.13V462.6a23.13,23.13,0,0,1-23.13,23.13H515a23.13,23.13,0,0,1-23.13-23.13V267.34A23.12,23.12,0,0,1,515,244.22Z"/><rect class="cls-77" x="501.79" y="388.27" width="0.62" height="79.84"/><rect class="cls-78" x="532.06" y="388.27" width="0.62" height="79.84"/><rect class="cls-79" x="562.32" y="388.27" width="0.62" height="79.84"/><rect class="cls-80" x="592.59" y="388.27" width="0.62" height="79.84"/><rect class="cls-81" x="622.86" y="388.27" width="0.62" height="79.84"/><path class="cls-82" d="M502.1,435.74s12.33,10.39,24.25-1.91,25.67-16.42,37.83-6.06,16.88-3.85,29-15.51,12-18.28,30-18.28v74.13H502.1Z"/><rect class="cls-83" x="532.37" y="381.63" width="7.52" height="2.91" rx="1.28"/><rect class="cls-84" x="501.79" y="381.63" width="10.23" height="2.91" rx="1.28"/><rect class="cls-85" x="562.64" y="381.63" width="9.27" height="2.91" rx="1.28"/><rect class="cls-86" x="592.59" y="381.63" width="9.27" height="2.91" rx="1.28"/><rect class="cls-87" x="613.9" y="381.63" width="9.27" height="2.91" rx="1.28"/><rect class="cls-88" x="577.4" y="329.13" width="40.47" height="5.12" rx="2.25"/><rect class="cls-89" x="577.4" y="350.59" width="37.15" height="5.12" rx="2.25"/><rect class="cls-90" x="577.4" y="339.86" width="32.14" height="5.12" rx="2.25"/><path class="cls-91" d="M541.12,321.82a7.08,7.08,0,1,1-7.08-7.07A7.08,7.08,0,0,1,541.12,321.82Z"/><path class="cls-92" d="M546.81,344.89v13.46a31.1,31.1,0,0,1-25.66,0V344.89a12.83,12.83,0,0,1,25.66,0Z"/><path class="cls-93" d="M534,362a31.86,31.86,0,1,1,13.17-2.84A31.71,31.71,0,0,1,534,362Zm0-62.07a30.2,30.2,0,1,0,30.2,30.19A30.23,30.23,0,0,0,534,299.89Z"/><path class="cls-94" d="M597.23,316.61a19.26,19.26,0,1,1,19.25-19.26A19.28,19.28,0,0,1,597.23,316.61Zm0-34.66a15.41,15.41,0,1,0,15.4,15.4A15.42,15.42,0,0,0,597.23,282Z"/><rect class="cls-95" x="532.54" y="258.97" width="29.02" height="4.63" rx="2.03"/><rect class="cls-96" x="536.81" y="270.89" width="24.74" height="4.63" rx="2.04"/><rect class="cls-97" x="521.78" y="282.82" width="39.78" height="4.63" rx="2.03"/><rect class="cls-5" x="643.2" y="243.72" width="96.44" height="68.75" rx="5.83"/><path class="cls-98" d="M652.93,261.85h29.76a1.95,1.95,0,0,1,1.95,1.95v1a1.94,1.94,0,0,1-1.94,1.94H652.93a1.94,1.94,0,0,1-1.94-1.94v-1a1.94,1.94,0,0,1,1.94-1.94Z"/><rect class="cls-99" x="650.99" y="250.76" width="26.37" height="4.9" rx="1.94"/><polygon class="cls-100" points="650.99 302.98 670.49 283.47 676.32 289.3 697.72 267.9 707.22 277.4 732.07 252.55 732.07 302.98 650.99 302.98"/><polygon class="cls-101" points="731.85 302.98 731.85 264.3 706.21 289.94 697.03 280.75 681.73 296.06 670.13 291.45 650.99 302.98 731.85 302.98"/></g></g></g></svg>