<svg xmlns="http://www.w3.org/2000/svg" viewBox="0 0 594.46 741.32"><defs><style>.cls-1{fill:#28ade3;}.cls-2{fill:#3e4295;}</style></defs><title>logo sistesi SVG</title><g id="Layer_2" data-name="Layer 2"><g id="Layer_1-2" data-name="Layer 1"><path class="cls-1" d="M158.85,695.09c23.41-45.76,23.64-94.18,18.51-142.64C165.56,440.84,126.17,336.72,88.1,232.3,69.72,181.9,48.76,132.37,34.89,80.41,30,62.17,26,43.58,30.84,24.48,34.83,8.85,44.71.89,60.72.1c21.57-1.07,40.79,7,59.77,15.55C162.07,34.49,199,61.08,236.85,86.12c95,62.84,193.22,120.55,289.56,181.27a289.79,289.79,0,0,1,38.91,29.33c34.14,30.56,42,91.92,3.28,131.16-33,33.38-70.76,60.35-109.6,86-78.62,52-161.22,97.45-241.45,146.8-16.11,9.91-27.76,17.9-43.79,27.94C170.81,690.52,162,695.45,158.85,695.09Z"/><path class="cls-2" d="M104.71,358.67c12.88,30.68,22.09,60.48,29.64,90.83C147.66,503,154.9,557.19,151.53,612.43c-1.62,26.56-6.62,52.43-17.8,76.86-3.2,7-7,13.35-13.63,17.57-18.15,11.53-36,23.54-56.32,31.19C26.72,752-2.95,719,.23,683.39c1.32-14.76,5.26-28.91,9.68-43C32.59,567.9,62,497.84,86.33,426,93.58,404.57,100.17,383,104.71,358.67Z"/></g></g></svg>