<svg xmlns="http://www.w3.org/2000/svg" viewBox="0 0 2777.4 674.12"><defs><style>.cls-1{fill:#28ade3;}</style></defs><title>sistesi tok</title><g id="Layer_2" data-name="Layer 2"><g id="Layer_1-2" data-name="Layer 1"><rect class="cls-1" x="2706.61" y="6.55" width="70.79" height="75.69" rx="7.63"/><path class="cls-1" d="M999.78,673c-35.51-.92-73-.19-110.66-3.89-71.4-7-117.08-48-128.86-118.87-4-24.38-4.47-49-5-73.62-.26-11,3.88-14.39,14.33-13.92,18.43.84,40.84-5.51,54.25,2.88,13.92,8.7,4.74,32.75,5.83,50,3.69,58.33,28.36,89.18,85.84,93.11,64.7,4.41,130,5.59,194.43-5.78,39.83-7,61.47-32.78,65.34-73.17,3-30.71,5-61.2-.09-92-6.3-38.33-21.65-56-59.38-62.49-43.18-7.4-86.94-9.11-130.64-11.06-33.44-1.5-67-1.68-100.09-7.57-76.47-13.61-117.29-56.4-124.38-133.19a407.9,407.9,0,0,1,2.51-96.18c9.11-63,42.56-102.7,105.69-114.38,88.89-16.44,178.41-17.44,267.24-1.56,60.77,10.86,95.64,54.11,100.77,115.79,1.25,15,2.14,30,3.42,45,.89,10.51-3.59,15.42-14.18,14.61-.68-.06-1.37,0-2,0-17.77-.3-39,5.3-52.34-2.55-13.57-8-5.42-31.39-8.3-47.88-6.58-37.63-24.91-61.11-62.2-66.38-68.76-9.71-137.77-8.9-206.29,3.53-32.71,5.94-50.73,26.78-57.54,59A222.05,222.05,0,0,0,835.53,214c8.68,53.92,31.1,72.56,87.22,76.29,63.43,4.21,126.89,8,190.3,12.48,81.16,5.7,118.63,37.36,134,113a270.93,270.93,0,0,1,4.7,36.57c2.56,40.47-.06,80.63-9,120.26-10.76,47.89-42.55,74.82-88.18,87.57a314.35,314.35,0,0,1-33.9,7.92C1081.3,674.49,1041.51,672.27,999.78,673Z"/><path class="cls-1" d="M245.47,673.1c-35.6-1.27-72.46,0-109.4-3.88-76.56-8.07-123.66-53.14-131.77-130C2.08,518.19,1.7,497,.09,475.82-.66,466,3.29,462.42,13,462.74c15.73.52,31.51.7,47.22-.05,11.15-.54,14.15,4.12,13.83,14.44a283.33,283.33,0,0,0,2.81,47c7.26,53.79,30,80.6,82.8,84.6,62,4.7,124.65,4.82,186.46-3.8,48.83-6.82,67.42-26.58,74.43-75.75,4.73-33.17,5.72-66.87-1.79-100-6.79-30-23-49.95-55.9-54.3-41.39-5.48-82.92-8.54-124.56-10.37-36.19-1.6-72.42-2.29-108.3-8C61.89,345.8,23,309.78,9.36,243.05c-9.6-47-6.83-93.94,4.81-140.26C26,55.87,56.54,27.47,103,15.77A449.87,449.87,0,0,1,214.68,2c47.87.15,95.68-1.19,143.49,4.4C435.9,15.52,480,61.3,484.39,140c2.59,46.81,2.59,46.81-44.49,46.78-28.36,0-28.36,0-29.07-26.81-1.7-64.18-21.31-86.64-91.15-93.61C266,61,211.52,61.49,157.93,70.23c-55.56,9.07-68.19,23-77.67,79A188.86,188.86,0,0,0,84,228.57c11.09,43,32.94,58.47,84.76,61.79,61.39,3.94,122.79,7.83,184.15,12.21a263.41,263.41,0,0,1,40.47,6.09c66.46,15.38,92.93,47,102.14,127.77,4.65,40.73,4.1,82.11-4.12,122.69-13.67,67.43-54.05,100.51-129.88,109.71C323.3,673.47,285,672,245.47,673.1Z"/><path class="cls-1" d="M2096,527.71c-30.47,0-30.47,0-33,30.65-2.39,30.3-10.1,40.57-40.4,48.62-43.49,11.64-88,10.27-132.34,6a128.49,128.49,0,0,1-43.14-12.5c-19.18-9.24-30.82-23.62-35.78-44.51-7.19-30.13-7.71-60.94-8.74-91.59-.51-14,4.46-17.46,17.64-17.46,49.13.68,98.44.34,147.74.34s98.62-.34,147.75.17c13.18.17,18.32-3.25,17.81-17.12-1.72-35.61-.17-71.05-5-106.49-8.9-65.05-40.75-106.14-96.9-117.78a463,463,0,0,0-161.1-4.45c-83,12-116.25,41.94-130.62,118.47-14.56,76.52-14.22,153.91-.35,230.43,13.36,73.28,45.37,104.44,118.47,116.59a505.87,505.87,0,0,0,185.76-3.25c54.1-11.3,83.37-44,89.19-95.87C2137.38,527.71,2137.38,527.71,2096,527.71ZM1808.16,316.62c8.74-37.32,34.07-57.18,70.71-61.29,38.69-4.28,77.9-5.65,116.42,1,44.17,7.71,63.17,29.79,66.76,74.82,1,12.32-.16,24.82,1.55,37,5,33.38-1.2,27.9-27.39,28.07-34.93.17-69.68,0-104.61,0-37.66,0-75.16-.34-112.82.17-12.67.17-16.78-4.11-16.27-16.6C1803.2,358.57,1803.37,337.51,1808.16,316.62Z"/><path class="cls-1" d="M2416.76,672.75c-40.27.75-77.52-1.81-114.4-11-72.24-17.91-84.74-71.28-83.07-131.84.19-6.84,3.45-9.93,10.13-9.82,2,0,4.1-.09,6.15-.07,15.73.16,33.4-4.13,46.7,1.64,16,7,4.26,26.77,7.66,40.73,8.7,35.68,21.69,48.7,57.78,52.92,49.2,5.76,98.11,5.79,146.89-4.13,26.68-5.42,41.77-20.56,46.25-47.71a181,181,0,0,0,1.4-49c-3.91-36.42-19.14-50.55-56.33-51.24-50.61-.93-101.16-2.36-151.43-8.54a284.05,284.05,0,0,1-44.15-8.53c-32-9.26-53.05-29.86-60.73-63.09a241.29,241.29,0,0,1-.19-109.65c7.24-31.56,26.53-51.74,57.36-60.94,49.8-14.86,101-16.31,152.32-14.47,30,1.08,60.14,2.08,89.35,10.54,47.61,13.79,77,59.4,69.12,107.37-.22,1.35.26,3.38-.49,4-16.78,13.57-36.35,3.58-54.49,6.18-8.61,1.23-10.86-4.44-12.1-12.55-7.41-48.48-19.88-59.57-68.14-60.21-36.26-.47-72.56-.61-108.8.38-42.07,1.15-60.9,20.87-61.76,62.61-.15,7.52,0,15.06.38,22.58,2,41.46,16.48,56,57.63,58.37,50.5,2.84,101,5.6,151.5,8.62,68.64,4.11,105,41.11,111,112.73a214.56,214.56,0,0,1-4.77,65.24c-11.66,51.73-44,76.67-107.35,84.31C2471.58,671.62,2443,673.86,2416.76,672.75Z"/><path class="cls-1" d="M1562.07,372.7c0,91.72-.33,183.43.33,275.14.11,15.26-4.1,19.88-19.58,19.86-54.86-.11-54.87.48-54.87-54.54,0-171.11-.28-342.22.42-513.32.07-18.59-4.51-24.36-23.64-23.92-57.47,1.3-115,.07-172.47.75-13.87.16-18.88-3.16-18.88-18.06,0-51.77-.6-51.77,50.47-51.77,143.73,0,287.46.22,431.19-.31,15.57-.06,21.26,3.28,21,20.15-.72,49.69.06,49.7-48.82,49.7-48.59,0-97.2.6-145.77-.34-15.3-.3-19.86,3.94-19.74,19.47C1562.43,187.9,1562.07,280.31,1562.07,372.7Z"/><path class="cls-1" d="M661.37,337.48c0,102.66-.34,205.31.34,308,.11,16.21-2.92,22.64-21,22.33-53.39-.89-53.41-.06-53.41-53.17,0-195,.22-390.09-.37-585.14-.05-17.16,2.92-23.64,22-23.15,52.37,1.32,52.4.32,52.4,51.93Z"/><path class="cls-1" d="M2777.06,436.39c0,70.49-.43,141,.33,211.45.17,15.56-4.87,19.79-19.93,19.82-48.88.11-48.88.66-48.88-48.15,0-130,.38-260-.42-390-.12-19.13,4.05-26.31,24.59-25.64,44.28,1.47,44.31.37,44.31,43.71Z"/></g></g></svg>