<svg xmlns="http://www.w3.org/2000/svg" width="132.587" height="125.411" viewBox="0 0 132.587 125.411">
  <g id="Group_3" data-name="Group 3" transform="translate(-713.153 691)">
    <g id="Group_1" data-name="Group 1" transform="translate(754.112 -691)">
      <path id="Path_1" data-name="Path 1" d="M64.874,102.59c2.783-5.436,2.808-11.19,2.2-16.948-1.4-13.261-6.083-25.632-10.607-38.04-2.183-5.989-4.674-11.873-6.322-18.048a12.936,12.936,0,0,1-.481-6.646,3.509,3.509,0,0,1,3.55-2.9c2.564-.127,4.846.827,7.1,1.848,4.94,2.239,9.327,5.4,13.826,8.373C85.431,37.7,97.1,44.556,108.549,51.77a34.507,34.507,0,0,1,4.623,3.487,10.943,10.943,0,0,1,.389,15.583,79.65,79.65,0,0,1-13.022,10.224c-9.34,6.18-19.155,11.581-28.689,17.443-1.915,1.178-3.3,2.128-5.2,3.321A4.963,4.963,0,0,1,64.874,102.59Z" transform="translate(-46.001 -20)" fill="#27ace2"/>
      <path id="Path_2" data-name="Path 2" d="M59.808,45.51A72.9,72.9,0,0,1,63.33,56.3a63.785,63.785,0,0,1,2.041,19.359,25.413,25.413,0,0,1-2.115,9.132,4.536,4.536,0,0,1-1.621,2.088,36.878,36.878,0,0,1-6.691,3.707c-4.4,1.656-7.929-2.26-7.551-6.5a24.446,24.446,0,0,1,1.149-5.112c2.695-8.61,6.188-16.935,9.081-25.473A57.178,57.178,0,0,0,59.808,45.51Z" transform="translate(-47.366 -2.893)" fill="#3e4295"/>
    </g>
    <g id="Group_2" data-name="Group 2" transform="translate(713.153 -597.77)">
      <rect id="Rectangle_1" data-name="Rectangle 1" width="3.38" height="3.613" rx="0.678" transform="translate(129.207 0.313)" fill="#27ace2"/>
      <path id="Path_3" data-name="Path 3" d="M60.081,112.739c-1.694-.044-3.486-.009-5.282-.185a6.38,6.38,0,0,1-6.151-5.675,24.939,24.939,0,0,1-.242-3.513c-.012-.528.185-.688.685-.665.88.041,1.95-.263,2.589.137.665.415.227,1.563.278,2.386.176,2.785,1.354,4.258,4.1,4.446a38.27,38.27,0,0,0,9.281-.277,3.561,3.561,0,0,0,3.119-3.492,16.818,16.818,0,0,0,0-4.39c-.3-1.831-1.034-2.675-2.835-2.984A49.981,49.981,0,0,0,59.382,98a36.531,36.531,0,0,1-4.778-.361c-3.65-.65-5.6-2.693-5.937-6.358a19.407,19.407,0,0,1,.12-4.592c.435-3.008,2.031-4.9,5.045-5.46a35.434,35.434,0,0,1,12.757-.075A5.653,5.653,0,0,1,71.4,86.68c.059.715.1,1.432.162,2.147.044.5-.172.736-.677.7-.032,0-.065,0-.1,0-.849-.015-1.863.253-2.5-.122s-.259-1.5-.4-2.287c-.313-1.795-1.189-2.917-2.968-3.169a30.818,30.818,0,0,0-9.849.168,3.258,3.258,0,0,0-2.746,2.815,10.578,10.578,0,0,0-.089,3.9c.414,2.574,1.485,3.465,4.163,3.643,3.029.2,6.057.384,9.084.6,3.874.272,5.663,1.784,6.4,5.392a13.113,13.113,0,0,1,.224,1.747,20.271,20.271,0,0,1-.427,5.74,5.407,5.407,0,0,1-4.21,4.181,15,15,0,0,1-1.617.378A40.475,40.475,0,0,1,60.081,112.739Z" transform="translate(-12.355 -80.611)" fill="#27ace2"/>
      <path id="Path_4" data-name="Path 4" d="M36.163,112.712c-1.7-.062-3.459,0-5.224-.185-3.653-.385-5.9-2.538-6.289-6.2-.107-1.005-.125-2.019-.2-3.029-.036-.469.153-.639.617-.624.751.026,1.5.033,2.255,0,.531-.026.676.2.659.691a13.711,13.711,0,0,0,.134,2.245c.348,2.568,1.431,3.847,3.954,4.038a41.723,41.723,0,0,0,8.9-.181c2.331-.326,3.218-1.27,3.554-3.617a13.128,13.128,0,0,0-.086-4.774,2.974,2.974,0,0,0-2.669-2.592c-1.975-.26-3.958-.408-5.946-.495a45.7,45.7,0,0,1-5.17-.379c-3.253-.515-5.109-2.234-5.761-5.419a14.942,14.942,0,0,1,.23-6.7,5.423,5.423,0,0,1,4.243-4.154,21.5,21.5,0,0,1,5.329-.656,60.2,60.2,0,0,1,6.85.211c3.71.433,5.818,2.619,6.024,6.375.125,2.234.125,2.234-2.123,2.233-1.354,0-1.354,0-1.389-1.28-.08-3.063-1.017-4.136-4.351-4.468a29.694,29.694,0,0,0-7.721.187c-2.653.433-3.256,1.1-3.707,3.772a9.006,9.006,0,0,0,.179,3.787c.53,2.054,1.574,2.791,4.047,2.95,2.931.188,5.862.373,8.791.582a12.712,12.712,0,0,1,1.932.29c3.172.734,4.435,2.246,4.876,6.1a18.766,18.766,0,0,1-.2,5.857c-.653,3.22-2.58,4.8-6.2,5.237C39.877,112.73,38.051,112.658,36.163,112.712Z" transform="translate(-24.444 -80.579)" fill="#27ace2"/>
      <path id="Path_5" data-name="Path 5" d="M96.821,102.656c-1.455,0-1.455,0-1.577,1.462-.114,1.447-.483,1.936-1.929,2.321a17.666,17.666,0,0,1-6.318.286,6.133,6.133,0,0,1-2.06-.6A2.988,2.988,0,0,1,83.229,104a21.9,21.9,0,0,1-.417-4.372c-.024-.671.214-.834.843-.834,2.346.033,4.7.017,7.053.017s4.708-.017,7.053.007c.629.009.874-.155.85-.817-.083-1.7-.009-3.391-.238-5.084-.424-3.105-1.945-5.067-4.625-5.622a22.1,22.1,0,0,0-7.691-.212c-3.964.572-5.549,2-6.236,5.656a30.006,30.006,0,0,0-.017,11c.638,3.5,2.167,4.986,5.656,5.565a24.145,24.145,0,0,0,8.868-.155,4.892,4.892,0,0,0,4.258-4.577C98.8,102.656,98.8,102.656,96.821,102.656ZM83.083,92.579a3.6,3.6,0,0,1,3.375-2.926,19.82,19.82,0,0,1,5.558.05c2.108.367,3.015,1.422,3.187,3.572.05.588-.008,1.184.074,1.765.238,1.593-.057,1.331-1.307,1.341-1.667.008-3.327,0-4.994,0-1.8,0-3.587-.017-5.386.008-.6.009-.8-.2-.776-.793A15.608,15.608,0,0,1,83.083,92.579Z" transform="translate(3.235 -77.464)" fill="#27ace2"/>
      <path id="Path_6" data-name="Path 6" d="M104.29,109.567a20.806,20.806,0,0,1-5.461-.524c-3.448-.855-4.046-3.4-3.966-6.293a.42.42,0,0,1,.484-.469c.1,0,.2,0,.293,0a6.15,6.15,0,0,1,2.23.078c.764.333.2,1.279.366,1.945.415,1.7,1.035,2.325,2.758,2.526a22.116,22.116,0,0,0,7.013-.2,2.541,2.541,0,0,0,2.207-2.278,8.614,8.614,0,0,0,.066-2.341c-.185-1.738-.913-2.413-2.689-2.446a69.5,69.5,0,0,1-7.229-.408,13.493,13.493,0,0,1-2.106-.406,3.876,3.876,0,0,1-2.9-3.012,11.517,11.517,0,0,1-.009-5.234,3.716,3.716,0,0,1,2.738-2.91,22.4,22.4,0,0,1,7.271-.691,17.379,17.379,0,0,1,4.265.5,4.563,4.563,0,0,1,3.3,5.124c-.011.065.012.162-.024.191-.8.647-1.735.17-2.6.295-.411.059-.518-.212-.578-.6-.354-2.314-.948-2.844-3.253-2.874-1.73-.023-3.463-.029-5.194.018-2.009.056-2.907,1-2.947,2.99-.008.358,0,.719.018,1.077.095,1.98.787,2.677,2.75,2.786,2.412.135,4.822.268,7.232.412,3.277.2,5.012,1.962,5.3,5.382a10.31,10.31,0,0,1-.227,3.114c-.557,2.469-2.1,3.659-5.126,4.023A25.041,25.041,0,0,1,104.29,109.567Z" transform="translate(11.081 -77.45)" fill="#27ace2"/>
      <path id="Path_7" data-name="Path 7" d="M78.629,98.3c0,4.378-.015,8.756.017,13.135,0,.728-.2.949-.936.948-2.618,0-2.618.023-2.618-2.6,0-8.168-.014-16.336.02-24.5,0-.888-.215-1.163-1.128-1.142-2.744.062-5.489,0-8.233.035-.662.009-.9-.15-.9-.861,0-2.472-.029-2.472,2.41-2.472,6.861,0,13.723.011,20.584-.015.743,0,1.016.156,1,.961-.035,2.373,0,2.373-2.331,2.373s-4.64.029-6.958-.017c-.73-.014-.948.188-.943.93C78.647,89.477,78.629,93.888,78.629,98.3Z" transform="translate(-4.059 -80.506)" fill="#27ace2"/>
      <path id="Path_8" data-name="Path 8" d="M46.62,96.621c0,4.9-.017,9.8.017,14.7,0,.775-.14,1.082-1,1.067-2.549-.042-2.55,0-2.55-2.538,0-9.312.011-18.622-.017-27.933,0-.82.138-1.128,1.05-1.106,2.5.063,2.5.017,2.5,2.479Z" transform="translate(-15.048 -80.51)" fill="#27ace2"/>
      <path id="Path_9" data-name="Path 9" d="M113.661,98.181c0,3.366-.021,6.73.017,10.094.008.743-.233.945-.952.946-2.334.006-2.334.032-2.334-2.3,0-6.206.018-12.412-.02-18.619-.006-.915.193-1.258,1.174-1.225,2.114.069,2.115.018,2.115,2.087Z" transform="translate(18.91 -77.348)" fill="#27ace2"/>
    </g>
  </g>
</svg>
